#!OML:ASF H:\MichaelJackson\Top Level 1\Subject 1\Session 1\male.ASF
:FULLY-SPECIFIED
:DEGREES
546
root 4.71652 17.3115 -10.8103 6.71716 10.1661 -2.23144
lowerback 2.46665 2.29615 1.59593
upperback 6.03884 2.95663 3.14292
thorax 4.77472 1.472 2.41238
lowerneck -11.0575 -5.98987 -0.77626
upperneck 41.7528 -8.42272 -0.62265
head 17.0704 -3.51657 -1.52945
rclavicle -2.06736e-014 -3.57812e-014
rhumerus -18.801 38.6046 -87.6584
rradius 132.803
rwrist -21.8798
rhand -47.1934 -61.6075
rfingers 7.12502
rthumb -19.8932 -629.391
lclavicle -2.06736e-014 -3.57812e-014
lhumerus -66.4758 -7.37121 101.147
lradius 56.9097
lwrist 11.9929
lhand -7.57741 7.93241
lfingers 7.12502
lthumb 18.3154 37.0901
rfemur -23.7505 -8.33272 24.8386
rtibia 49.7203
rfoot -4.55234 4.97361
rtoes 11.5285
lfemur -38.1348 0.0474795 -19.096
ltibia 55.7854
lfoot 2.49288 -12.1861
ltoes 38.4704
547
root 4.72964 17.3467 -10.7954 7.06505 9.64421 -1.53558
lowerback 2.64489 2.27211 1.08821
upperback 6.09464 2.94237 2.7789
thorax 4.72399 1.45087 2.31089
lowerneck -11.2526 -5.88829 -0.764024
upperneck 41.8621 -8.23917 -0.730712
head 17.1734 -3.45159 -1.56264
rclavicle -6.75868e-015 -1.19271e-014
rhumerus -18.845 38.9358 -87.993
rradius 132.796
rwrist -21.9636
rhand -47.1212 -61.4608
rfingers 7.12502
rthumb -19.8238 -629.53
lclavicle -6.75868e-015 -1.19271e-014
lhumerus -66.6828 -7.49711 101.257
lradius 57.5773
lwrist 12.5396
lhand -6.06849 7.57538
lfingers 7.12502
lthumb 19.7665 36.5903
rfemur -26.845 -8.71908 24.0777
rtibia 53.6087
rfoot -0.354661 5.42973
rtoes 15.4651
lfemur -37.3827 -0.0908213 -19.8628
ltibia 54.23
lfoot 0.965678 -13.0104
ltoes 37.8473
548
root 4.74385 17.3752 -10.7771 7.41051 9.10051 -0.772959
lowerback 2.80313 2.23941 0.534258
upperback 6.13152 2.91571 2.38499
thorax 4.66496 1.42236 2.20502
lowerneck -11.4683 -5.77596 -0.758813
upperneck 41.9388 -8.02707 -0.861012
head 17.2628 -3.38066 -1.59955
rclavicle -1.90833e-014 -1.35174e-014
rhumerus -18.8701 39.3071 -88.3125
rradius 132.824
rwrist -22.1074
rhand -47.0296 -61.3187
rfingers 7.12502
rthumb -19.7357 -629.663
lclavicle -1.90833e-014 -1.35174e-014
lhumerus -66.9158 -7.5703 101.261
lradius 58.2111
lwrist 12.9708
lhand -4.38865 7.41205
lfingers 7.12502
lthumb 21.3807 36.2524
rfemur -30.0363 -9.07603 23.2598
rtibia 57.5042
rfoot 3.73974 5.67771
rtoes 20.0798
lfemur -36.5452 -0.210038 -20.7461
ltibia 52.5835
lfoot -0.297514 -13.3962
ltoes 37.1706
549
root 4.7581 17.3976 -10.7544 7.72951 8.55129 0.0443638
lowerback 2.90078 2.21831 -0.0825412
upperback 6.1775 2.90232 1.9841
thorax 4.64763 1.39756 2.13091
lowerneck -11.6874 -5.67627 -0.766741
upperneck 41.9495 -7.82844 -0.987917
head 17.3171 -3.31909 -1.63257
rclavicle -2.62396e-014 4.77083e-015
rhumerus -18.8498 39.6586 -88.5473
rradius 132.893
rwrist -22.2907
rhand -46.9418 -61.1963
rfingers 7.12502
rthumb -19.6514 -629.777
lclavicle -2.62396e-014 4.77083e-015
lhumerus -67.1467 -7.64535 101.208
lradius 58.8072
lwrist 13.3143
lhand -2.58665 7.47625
lfingers 7.12502
lthumb 23.1106 36.1102
rfemur -33.2208 -9.40213 22.4065
rtibia 61.3066
rfoot 7.27771 5.77164
rtoes 24.6742
lfemur -35.5938 -0.264431 -21.7431
ltibia 50.8378
lfoot -1.09328 -13.2845
ltoes 36.5014
550
root 4.77181 17.4141 -10.727 7.99608 8.00235 0.892627
lowerback 2.96929 2.20823 -0.741242
upperback 6.21856 2.90284 1.58243
thorax 4.64018 1.37772 2.08104
lowerneck -11.8774 -5.58557 -0.793094
upperneck 41.9017 -7.64437 -1.09188
head 17.3337 -3.2655 -1.65091
rclavicle 3.10104e-014 4.05521e-014
rhumerus -18.8285 39.9827 -88.7283
rradius 132.995
rwrist -22.4718
rhand -46.8553 -61.106
rfingers 7.12502
rthumb -19.5681 -629.859
lclavicle 3.10104e-014 4.05521e-014
lhumerus -67.4054 -7.7154 101.111
lradius 59.3723
lwrist 13.6001
lhand -0.75592 7.71865
lfingers 7.12502
lthumb 24.8661 36.1214
rfemur -36.3036 -9.69691 21.5468
rtibia 64.9341
rfoot 9.92606 5.82404
rtoes 28.6381
lfemur -34.5093 -0.207622 -22.8337
ltibia 48.9971
lfoot -1.47024 -12.7529
ltoes 35.7655
551
root 4.78442 17.424 -10.6945 8.17576 7.47611 1.73537
lowerback 3.01102 2.21729 -1.42997
upperback 6.26997 2.92786 1.20806
thorax 4.65612 1.36765 2.07797
lowerneck -12.0342 -5.51309 -0.834692
upperneck 41.8047 -7.4919 -1.16854
head 17.3163 -3.2249 -1.65613
rclavicle 3.53837e-014 9.54166e-015
rhumerus -18.7982 40.2471 -88.819
rradius 133.121
rwrist -22.6261
rhand -46.7887 -61.0532
rfingers 7.12502
rthumb -19.5042 -629.905
lclavicle 3.53837e-014 9.54166e-015
lhumerus -67.6642 -7.80476 101.015
lradius 59.8697
lwrist 13.8587
lhand 0.997796 8.14476
lfingers 7.12502
lthumb 26.5457 36.3047
rfemur -39.1929 -9.96519 20.7206
rtibia 68.3218
rfoot 11.6174 5.92531
rtoes 31.8868
lfemur -33.2587 -0.00365625 -23.9794
ltibia 47.0773
lfoot -1.57043 -11.9243
ltoes 35.1229
552
root 4.79628 17.4256 -10.6574 8.26712 6.96655 2.52792
lowerback 3.02513 2.25431 -2.09951
upperback 6.32768 2.98964 0.869363
thorax 4.69253 1.37528 2.1026
lowerneck -12.1523 -5.46033 -0.876931
upperneck 41.6779 -7.37928 -1.21602
head 17.2741 -3.19732 -1.65188
rclavicle 5.1684e-014 -3.18055e-015
rhumerus -18.7586 40.4229 -88.8227
rradius 133.256
rwrist -22.7381
rhand -46.7334 -61.0525
rfingers 7.12502
rthumb -19.4509 -629.9
lclavicle 5.1684e-014 -3.18055e-015
lhumerus -67.916 -7.93131 100.936
lradius 60.2735
lwrist 14.109
lhand 2.56718 8.72615
lfingers 7.12502
lthumb 28.0469 36.6498
rfemur -41.8632 -10.1926 19.9733
rtibia 71.4209
rfoot 12.4629 6.12274
rtoes 34.3271
lfemur -31.874 0.389805 -25.1381
ltibia 45.1136
lfoot -1.58917 -10.9285
ltoes 34.4981
553
root 4.80773 17.4186 -10.6159 8.26431 6.49108 3.2378
lowerback 3.01966 2.31563 -2.71841
upperback 6.39054 3.0833 0.57949
thorax 4.74397 1.39923 2.15037
lowerneck -12.2284 -5.42601 -0.913277
upperneck 41.5446 -7.30621 -1.23739
head 17.2189 -3.18127 -1.64144
rclavicle -1.05356e-014 2.8625e-014
rhumerus -18.7111 40.5141 -88.7451
rradius 133.381
rwrist -22.7973
rhand -46.7049 -61.1139
rfingers 7.12502
rthumb -19.4235 -629.836
lclavicle -1.05356e-014 2.8625e-014
lhumerus -68.1409 -8.09406 100.89
lradius 60.5479
lwrist 14.3431
lhand 3.87012 9.39212
lfingers 7.12502
lthumb 29.2917 37.1053
rfemur -44.2822 -10.3811 19.3342
rtibia 74.1864
rfoot 12.6957 6.39147
rtoes 36.0703
lfemur -30.3835 0.965992 -26.261
ltibia 43.1508
lfoot -1.73758 -9.91323
ltoes 33.8771
554
root 4.81883 17.4025 -10.5707 8.17749 6.07607 3.85027
lowerback 3.01371 2.38291 -3.25587
upperback 6.44841 3.184 0.333909
thorax 4.79135 1.4291 2.19813
lowerneck -12.2734 -5.39841 -0.935726
upperneck 41.4309 -7.25866 -1.23263
head 17.1678 -3.16915 -1.6254
rclavicle -8.94531e-015 -6.36111e-015
rhumerus -18.6546 40.5289 -88.6208
rradius 133.482
rwrist -22.828
rhand -46.6843 -61.2295
rfingers 7.12502
rthumb -19.4037 -629.719
lclavicle -8.94531e-015 -6.36111e-015
lhumerus -68.3311 -8.26759 100.857
lradius 60.6717
lwrist 14.5364
lhand 4.87045 10.0698
lfingers 7.12502
lthumb 30.2464 37.6121
rfemur -46.4446 -10.538 18.8139
rtibia 76.5809
rfoot 12.602 6.69257
rtoes 37.1858
lfemur -28.8297 1.70025 -27.3121
ltibia 41.2405
lfoot -2.18839 -9.00892
ltoes 33.2908
555
root 4.82991 17.377 -10.5225 8.02885 5.74336 4.37155
lowerback 3.02047 2.44037 -3.7054
upperback 6.48313 3.26964 0.125006
thorax 4.80988 1.45528 2.2332
lowerneck -12.2802 -5.36748 -0.931778
upperneck 41.3605 -7.22166 -1.2124
head 17.1311 -3.15407 -1.60875
rclavicle 2.92213e-014 6.36111e-015
rhumerus -18.6162 40.4924 -88.4976
rradius 133.551
rwrist -22.8448
rhand -46.675 -61.3998
rfingers 7.12502
rthumb -19.3948 -629.547
lclavicle 2.92213e-014 6.36111e-015
lhumerus -68.4908 -8.42784 100.823
lradius 60.6215
lwrist 14.6467
lhand 5.52052 10.7193
lfingers 7.12502
lthumb 30.8663 38.1461
rfemur -48.3622 -10.6729 18.3968
rtibia 78.5723
rfoot 12.5512 6.96606
rtoes 37.8369
lfemur -27.2696 2.54017 -28.2737
ltibia 39.4324
lfoot -3.02036 -8.29773
ltoes 32.7592
556
root 4.84089 17.3428 -10.4719 7.84172 5.52234 4.82563
lowerback 3.0491 2.46819 -4.08227
upperback 6.49411 3.31309 -0.0559196
thorax 4.79539 1.46416 2.25462
lowerneck -12.2865 -5.32526 -0.901916
upperneck 41.3515 -7.18123 -1.18364
head 17.128 -3.13055 -1.59443
rclavicle -2.48481e-014 9.54166e-015
rhumerus -18.5815 40.4286 -88.3897
rradius 133.585
rwrist -22.8636
rhand -46.6587 -61.6224
rfingers 7.12502
rthumb -19.3791 -629.323
lclavicle -2.48481e-014 9.54166e-015
lhumerus -68.5941 -8.54694 100.761
lradius 60.3881
lwrist 14.6419
lhand 5.85768 11.2509
lfingers 7.12502
lthumb 31.1877 38.6164
rfemur -50.041 -10.8005 18.0458
rtibia 80.1328
rfoot 12.8262 7.16412
rtoes 38.2829
lfemur -25.7542 3.4176 -29.1405
ltibia 37.7717
lfoot -4.20735 -7.82364
ltoes 32.3968
557
root 4.85133 17.3 -10.42 7.6481 5.4357 5.24307
lowerback 3.09157 2.45576 -4.41497
upperback 6.47547 3.30034 -0.217714
thorax 4.74661 1.44794 2.26948
lowerneck -12.2779 -5.27242 -0.848938
upperneck 41.3933 -7.1367 -1.14699
head 17.149 -3.09939 -1.58106
rclavicle 3.37934e-015 -1.51076e-014
rhumerus -18.5612 40.3412 -88.3157
rradius 133.59
rwrist -22.9237
rhand -46.6427 -61.8754
rfingers 7.12502
rthumb -19.3638 -629.069
lclavicle 3.37934e-015 -1.51076e-014
lhumerus -68.6243 -8.614 100.656
lradius 59.9647
lwrist 14.4959
lhand 5.9073 11.6302
lfingers 7.12502
lthumb 31.235 38.9867
rfemur -51.5011 -10.9316 17.7198
rtibia 81.2514
rfoot 13.5898 7.3386
rtoes 38.6255
lfemur -24.3407 4.27294 -29.919
ltibia 36.2997
lfoot -5.65427 -7.61251
ltoes 32.2176
558
root 4.86052 17.2488 -10.3677 7.47164 5.49783 5.65356
lowerback 3.16881 2.38877 -4.73223
upperback 6.41408 3.21064 -0.372168
thorax 4.63907 1.39627 2.28053
lowerneck -12.2583 -5.20375 -0.780037
upperneck 41.488 -7.07748 -1.10458
head 17.1968 -3.05776 -1.56678
rclavicle 5.1684e-015 3.02153e-014
rhumerus -18.5784 40.2562 -88.3124
rradius 133.574
rwrist -23.0261
rhand -46.6034 -62.1307
rfingers 7.12502
rthumb -19.326 -628.81
lclavicle 5.1684e-015 3.02153e-014
lhumerus -68.5882 -8.59516 100.482
lradius 59.3693
lwrist 14.2065
lhand 5.68817 11.8352
lfingers 7.12502
lthumb 31.0261 39.2317
rfemur -52.7481 -11.0648 17.3716
rtibia 81.9093
rfoot 14.8834 7.54878
rtoes 38.8761
lfemur -23.055 5.05398 -30.6197
ltibia 35.0119
lfoot -7.23381 -7.67073
ltoes 32.2442
559
root 4.86785 17.1906 -10.3156 7.33557 5.70517 6.06482
lowerback 3.23586 2.27648 -5.0469
upperback 6.33592 3.05952 -0.519656
thorax 4.52464 1.31474 2.29784
lowerneck -12.2465 -5.13335 -0.699562
upperneck 41.6048 -7.02448 -1.05152
head 17.2596 -3.01458 -1.55185
rclavicle -1.53064e-014 1.59028e-015
rhumerus -18.5909 40.1523 -88.3376
rradius 133.552
rwrist -23.1642
rhand -46.5364 -62.4113
rfingers 7.12502
rthumb -19.2615 -628.523
lclavicle -1.53064e-014 1.59028e-015
lhumerus -68.4394 -8.51648 100.232
lradius 58.6116
lwrist 13.7854
lhand 5.24393 11.8971
lfingers 7.12502
lthumb 30.6026 39.3735
rfemur -53.793 -11.1795 16.9786
rtibia 82.1157
rfoot 16.5952 7.89171
rtoes 38.9647
lfemur -21.9457 5.73336 -31.2401
ltibia 33.9571
lfoot -8.70811 -7.96801
ltoes 32.6431
560
root 4.87299 17.1356 -10.2646 7.25344 6.04517 6.47401
lowerback 3.29199 2.12811 -5.36285
upperback 6.23863 2.85923 -0.659768
thorax 4.40066 1.20944 2.32423
lowerneck -12.2243 -5.07199 -0.616636
upperneck 41.7215 -6.9922 -0.983128
head 17.3207 -2.97732 -1.53349
rclavicle -4.92986e-014 -3.18055e-015
rhumerus -18.6179 40.0221 -88.3955
rradius 133.541
rwrist -23.3431
rhand -46.454 -62.7121
rfingers 7.12502
rthumb -19.1823 -628.214
lclavicle -4.92986e-014 -3.18055e-015
lhumerus -68.1958 -8.38699 99.906
lradius 57.7429
lwrist 13.2548
lhand 4.60719 11.8673
lfingers 7.12502
lthumb 29.9952 39.4554
rfemur -54.5848 -11.2489 16.5264
rtibia 81.835
rfoot 18.562 8.39634
rtoes 38.8743
lfemur -21.0265 6.2945 -31.7742
ltibia 33.1306
lfoot -10.0488 -8.46888
ltoes 33.1157
